# xmcd
#
# Track frame offsets: 
#        150
#        19057
#        34895
#        49922
#        69917
#        88777
#        104682
#        117950
#        138510
#        153265
#        168855
#        183987
#
# Disc length: 2665 seconds
#
# Revision: 18
# Processed by: cddbd v1.5.2PL0 Copyright (c) Steve Scherf et al.
# Submitted via: ExactAudioCopy v1.3
#
DISCID=9d0a670c
DTITLE=Renee Olstead - Summertime
DYEAR=2004
DGENRE=Jazz
TTITLE0=Summertime
TTITLE1=Taking a Chance on Love
TTITLE2=Is You Is or Is You Aint My Baby
TTITLE3=Someone To Watch Over Me
TTITLE4=Breaking Up Is Hard To Do
TTITLE5=A Love That Will Last
TTITLE6=Meet Me, Midnight
TTITLE7=Sunday Kind of Love
TTITLE8=On A Slow Boat to China
TTITLE9=What A Difference A Day Makes
TTITLE10=Midnight At The Oasis
TTITLE11=Sentimental Journey
EXTD=YEAR: 2004
EXTT0=
EXTT1=
EXTT2=
EXTT3=
EXTT4=
EXTT5=
EXTT6=
EXTT7=
EXTT8=
EXTT9=
EXTT10=
EXTT11=
PLAYORDER=
